<svg width="41" height="41" viewBox="0 0 41 41" fill="none" xmlns="http://www.w3.org/2000/svg">
<g clip-path="url(#clip0_13_199)">
<path d="M19.547 22.6492C19.9469 22.2423 20.6525 22.2357 21.0721 22.6348L27.0555 28.3262C28.1589 29.3758 29.6073 29.9444 31.1248 29.9302L32.2706 29.9194L25.0804 37.235C22.8352 39.4582 19.102 39.4933 16.749 37.3134L9.17286 30.1142L9.87852 30.1076C11.3961 30.0933 12.8159 29.4977 13.8674 28.4279L19.547 22.6492ZM20.9376 17.1422C20.462 17.5573 19.84 17.5706 19.4124 17.1566L13.4524 11.4874C12.3473 10.3706 10.9006 9.86917 9.38306 9.88344L8.67739 9.89007L15.8897 2.54884C18.1409 0.262492 21.8741 0.227385 24.2287 2.47042L31.7816 9.65041L30.6283 9.66125C29.1107 9.67552 27.6909 10.2711 26.6394 11.341L20.9376 17.1422ZM9.42419 11.5626C10.4713 11.5527 11.4452 11.9616 12.2674 12.6854L18.2275 18.3546C18.7853 18.8196 19.5068 19.1487 20.2276 19.1419C20.9409 19.1352 21.6459 18.7927 22.1807 18.3174L27.8825 12.5161C28.6084 11.7852 29.6225 11.3577 30.6696 11.3478L33.5302 11.3209L38.0604 15.6301C40.4149 17.8697 40.5049 21.5414 38.2612 23.8243L33.9441 28.2167L31.0835 28.2436C30.0364 28.2534 29.0018 27.8451 28.2403 27.1208L22.2569 21.4294C21.1768 20.402 19.333 20.4193 18.3039 21.474L12.6241 27.2452C11.8377 27.9842 10.8843 28.4111 9.8372 28.421L7.42278 28.4437L2.91431 24.1567C0.556331 21.9171 0.466379 18.2454 2.71357 15.9625L7.00976 11.5853L9.42419 11.5626Z" fill="white"/>
</g>
<defs>
<clipPath id="clip0_13_199">
<rect width="40" height="40" fill="white" transform="matrix(0.999956 -0.00940373 0.0244915 0.9997 0 0.426086)"/>
</clipPath>
</defs>
</svg>
