<svg width="40" height="40" viewBox="0 0 40 40" fill="none" xmlns="http://www.w3.org/2000/svg">
<path d="M12.5 10C12.1685 10 11.8505 10.1317 11.6161 10.3661C11.3817 10.6005 11.25 10.9185 11.25 11.25C11.25 11.5815 11.3817 11.8995 11.6161 12.1339C11.8505 12.3683 12.1685 12.5 12.5 12.5H27.5C27.8315 12.5 28.1495 12.3683 28.3839 12.1339C28.6183 11.8995 28.75 11.5815 28.75 11.25C28.75 10.9185 28.6183 10.6005 28.3839 10.3661C28.1495 10.1317 27.8315 10 27.5 10H12.5ZM11.25 16.25C11.25 15.9185 11.3817 15.6005 11.6161 15.3661C11.8505 15.1317 12.1685 15 12.5 15H27.5C27.8315 15 28.1495 15.1317 28.3839 15.3661C28.6183 15.6005 28.75 15.9185 28.75 16.25C28.75 16.5815 28.6183 16.8995 28.3839 17.1339C28.1495 17.3683 27.8315 17.5 27.5 17.5H12.5C12.1685 17.5 11.8505 17.3683 11.6161 17.1339C11.3817 16.8995 11.25 16.5815 11.25 16.25ZM12.5 20C12.1685 20 11.8505 20.1317 11.6161 20.3661C11.3817 20.6005 11.25 20.9185 11.25 21.25C11.25 21.5815 11.3817 21.8995 11.6161 22.1339C11.8505 22.3683 12.1685 22.5 12.5 22.5H27.5C27.8315 22.5 28.1495 22.3683 28.3839 22.1339C28.6183 21.8995 28.75 21.5815 28.75 21.25C28.75 20.9185 28.6183 20.6005 28.3839 20.3661C28.1495 20.1317 27.8315 20 27.5 20H12.5ZM12.5 25C12.1685 25 11.8505 25.1317 11.6161 25.3661C11.3817 25.6005 11.25 25.9185 11.25 26.25C11.25 26.5815 11.3817 26.8995 11.6161 27.1339C11.8505 27.3683 12.1685 27.5 12.5 27.5H20C20.3315 27.5 20.6495 27.3683 20.8839 27.1339C21.1183 26.8995 21.25 26.5815 21.25 26.25C21.25 25.9185 21.1183 25.6005 20.8839 25.3661C20.6495 25.1317 20.3315 25 20 25H12.5Z" fill="white"/>
<path d="M5 5C5 3.67392 5.52678 2.40215 6.46447 1.46447C7.40215 0.526784 8.67392 0 10 0L30 0C31.3261 0 32.5979 0.526784 33.5355 1.46447C34.4732 2.40215 35 3.67392 35 5V35C35 36.3261 34.4732 37.5979 33.5355 38.5355C32.5979 39.4732 31.3261 40 30 40H10C8.67392 40 7.40215 39.4732 6.46447 38.5355C5.52678 37.5979 5 36.3261 5 35V5ZM30 2.5H10C9.33696 2.5 8.70107 2.76339 8.23223 3.23223C7.76339 3.70107 7.5 4.33696 7.5 5V35C7.5 35.663 7.76339 36.2989 8.23223 36.7678C8.70107 37.2366 9.33696 37.5 10 37.5H30C30.663 37.5 31.2989 37.2366 31.7678 36.7678C32.2366 36.2989 32.5 35.663 32.5 35V5C32.5 4.33696 32.2366 3.70107 31.7678 3.23223C31.2989 2.76339 30.663 2.5 30 2.5Z" fill="white"/>
</svg>
