<svg width="26" height="40" viewBox="0 0 26 40" fill="none" xmlns="http://www.w3.org/2000/svg">
<path d="M20.02 20C19.1111 18.8279 17.9556 18.2057 16.77 18.25H9.14876C8.80127 18.2635 8.45559 18.169 8.1324 17.9721C7.80922 17.7753 7.51517 17.4801 7.26787 17.1043C7.02057 16.7285 6.8251 16.2798 6.69316 15.7851C6.56122 15.2903 6.49553 14.7597 6.50001 14.225C6.49154 14.0169 6.49154 13.8081 6.50001 13.6C6.60247 12.6445 6.92814 11.7794 7.41585 11.1672C7.90356 10.555 8.51976 10.2377 9.14876 10.275H16.6563C17.2687 10.2742 17.8613 10.608 18.3286 11.217C18.7959 11.826 19.1074 12.6705 19.2075 13.6H21.645C21.543 11.6723 20.9731 9.87434 20.0488 8.56347C19.1245 7.25261 17.9134 6.52489 16.6563 6.52499H14.0888V0.774994H12.0575V6.52499H9.14876C7.89163 6.52489 6.68051 7.25261 5.75619 8.56347C4.83187 9.87434 4.26205 11.6723 4.16001 13.6C4.1519 13.8081 4.1519 14.0168 4.16001 14.225C4.16001 15.2329 4.28905 16.2309 4.53976 17.1621C4.79046 18.0933 5.15793 18.9394 5.62118 19.652C6.55675 21.0914 7.82566 21.9 9.14876 21.9H16.8513C17.196 21.8866 17.539 21.9796 17.86 22.1734C18.181 22.3672 18.4736 22.6578 18.7204 23.0283C18.9673 23.3987 19.1634 23.8415 19.2973 24.3304C19.4312 24.8193 19.5001 25.3445 19.5 25.875C19.5169 26.1577 19.5169 26.4423 19.5 26.725C19.371 27.6046 19.0514 28.3906 18.5937 28.9539C18.136 29.5173 17.5674 29.8244 16.9813 29.825H9.34376C8.75762 29.8244 8.18903 29.5173 7.73133 28.9539C7.27363 28.3906 6.95403 27.6046 6.82501 26.725H4.37126C4.51091 28.6034 5.09488 30.3371 6.01189 31.5957C6.9289 32.8544 8.11485 33.55 9.34376 33.55H12.0575V39.225H14.0888V33.55H16.8513C18.0802 33.55 19.2661 32.8544 20.1831 31.5957C21.1001 30.3371 21.6841 28.6034 21.8238 26.725V25.875C21.8218 24.7521 21.6592 23.6436 21.3475 22.6282C21.0357 21.6129 20.5825 20.7156 20.02 20Z" fill="white"/>
</svg>
