<svg width="12" height="33" viewBox="0 0 12 33" fill="none" xmlns="http://www.w3.org/2000/svg">
<path d="M0.315441 2.50352L9.53744 15.0945C9.7397 15.3692 9.85314 15.74 9.85314 16.1265C9.85314 16.5129 9.7397 16.8837 9.53744 17.1585L0.317442 29.7494C0.115291 30.0258 0.00201797 30.3979 0.00201797 30.7854C0.00201797 31.173 0.115291 31.545 0.317442 31.8215C0.416196 31.9576 0.534227 32.0658 0.66458 32.1396C0.794934 32.2135 0.934974 32.2515 1.07644 32.2515C1.21791 32.2515 1.35795 32.2135 1.4883 32.1396C1.61866 32.0658 1.73669 31.9576 1.83544 31.8215L11.0554 19.2332C11.6613 18.4041 12.0007 17.2885 12.0007 16.1265C12.0007 14.9644 11.6613 13.8489 11.0554 13.0197L1.83544 0.431454C1.73666 0.294924 1.6185 0.186397 1.48796 0.11229C1.35742 0.0381824 1.21715 0 1.07544 0C0.933731 0 0.793461 0.0381824 0.662922 0.11229C0.532383 0.186397 0.414226 0.294924 0.315441 0.431454C0.113289 0.707878 1.62125e-05 1.07993 1.62125e-05 1.46749C1.62125e-05 1.85504 0.113289 2.22709 0.315441 2.50352Z" fill="#FF9800"/>
</svg>
