<svg width="12" height="33" viewBox="0 0 12 33" fill="none" xmlns="http://www.w3.org/2000/svg">
<path d="M11.6853 29.748L2.46329 17.1571C2.26103 16.8824 2.14759 16.5115 2.14759 16.1251C2.14759 15.7386 2.26103 15.3678 2.46329 15.0931L11.6833 2.50213C11.8854 2.22571 11.9987 1.85366 11.9987 1.4661C11.9987 1.07855 11.8854 0.706499 11.6833 0.430075C11.5845 0.293957 11.4665 0.185776 11.3362 0.111916C11.2058 0.0380516 11.0658 0 10.9243 0C10.7828 0 10.6428 0.0380516 10.5124 0.111916C10.3821 0.185776 10.264 0.293957 10.1653 0.430075L0.945291 13.0183C0.339439 13.8475 0 14.9631 0 16.1251C0 17.2871 0.339439 18.4027 0.945291 19.2318L10.1653 31.8201C10.2641 31.9566 10.3822 32.0651 10.5128 32.1392C10.6433 32.2133 10.7836 32.2515 10.9253 32.2515C11.067 32.2515 11.2073 32.2133 11.3378 32.1392C11.4683 32.0651 11.5865 31.9566 11.6853 31.8201C11.8874 31.5436 12.0007 31.1716 12.0007 30.784C12.0007 30.3965 11.8874 30.0244 11.6853 29.748Z" fill="#FF9800"/>
</svg>
