<svg width="43" height="32" viewBox="0 0 43 32" fill="none" xmlns="http://www.w3.org/2000/svg">
<path d="M7.87705 21.686L20.468 12.464C20.7427 12.2617 21.1135 12.1483 21.5 12.1483C21.8864 12.1483 22.2573 12.2617 22.532 12.464L35.1229 21.684C35.3994 21.8862 35.7714 21.9994 36.159 21.9994C36.5465 21.9994 36.9186 21.8862 37.195 21.684C37.3311 21.5852 37.4393 21.4672 37.5131 21.3369C37.587 21.2065 37.6251 21.0665 37.6251 20.925C37.6251 20.7835 37.587 20.6435 37.5131 20.5131C37.4393 20.3828 37.3311 20.2648 37.195 20.166L24.6067 10.946C23.7776 10.3401 22.662 10.0007 21.5 10.0007C20.338 10.0007 19.2224 10.3401 18.3932 10.946L5.80499 20.166C5.66846 20.2648 5.55993 20.3829 5.48582 20.5135C5.41172 20.644 5.37354 20.7843 5.37354 20.926C5.37354 21.0677 5.41172 21.208 5.48582 21.3385C5.55993 21.4691 5.66846 21.5872 5.80499 21.686C6.08141 21.8882 6.45347 22.0014 6.84102 22.0014C7.22858 22.0014 7.60063 21.8882 7.87705 21.686Z" fill="#FF9800"/>
</svg>
