<svg width="24" height="24" viewBox="0 0 24 24" fill="none" xmlns="http://www.w3.org/2000/svg">
<path d="M17.757 7.193C16.6872 5.91061 15.2201 5.02193 13.5881 4.6678C11.9561 4.31368 10.2526 4.51437 8.74753 5.23806C7.2425 5.96176 6.02205 7.16706 5.27962 8.66294C4.53719 10.1588 4.31525 11.8597 4.64897 13.496M19.3 10.274C19.6938 11.9357 19.5087 13.6822 18.7753 15.2244C18.0419 16.7667 16.8042 18.0125 15.2666 18.7559C13.7291 19.4992 11.9839 19.6956 10.3197 19.3125C8.65542 18.9294 7.17174 17.9898 6.11397 16.649" stroke="#FF9800" stroke-linecap="round"/>
<path d="M18.125 5.5V7.5H16.125M7.875 16.5H5.875V18.5" stroke="#FF9800" stroke-linecap="round" stroke-linejoin="round"/>
<path d="M12 8V16" stroke="#FF9800" stroke-linecap="round"/>
<path d="M13.8099 10.152C13.6899 9.622 13.0069 9.032 12.0059 9.032C11.0059 9.032 10.2359 9.682 10.2359 10.502C10.2359 12.366 13.9469 11.408 13.9469 13.572C13.9469 14.353 13.0069 15.016 12.0069 15.016C11.0069 15.016 10.3129 14.401 10.1079 13.742" stroke="#FF9800" stroke-linecap="round" stroke-linejoin="round"/>
</svg>
