<svg width="37" height="37" viewBox="0 0 37 37" fill="none" xmlns="http://www.w3.org/2000/svg">
<circle cx="18.5" cy="18.5" r="18.5" fill="#2F2C79"/>
<path d="M26.02 18C25.1111 17.0037 23.9556 16.4749 22.77 16.5125H15.1488C14.8013 16.524 14.4556 16.4436 14.1324 16.2763C13.8092 16.109 13.5152 15.8581 13.2679 15.5387C13.0206 15.2192 12.8251 14.8378 12.6932 14.4173C12.5612 13.9968 12.4955 13.5458 12.5 13.0913C12.4915 12.9143 12.4915 12.7369 12.5 12.56C12.6025 11.7478 12.9281 11.0125 13.4158 10.4921C13.9036 9.97174 14.5198 9.70207 15.1488 9.73375H22.6563C23.2687 9.73305 23.8613 10.0168 24.3286 10.5345C24.7959 11.0521 25.1074 11.7699 25.2075 12.56H27.645C27.543 10.9215 26.9731 9.39319 26.0488 8.27896C25.1245 7.16473 23.9134 6.54617 22.6563 6.54625H20.0888V1.65875H18.0575V6.54625H15.1488C13.8916 6.54617 12.6805 7.16473 11.7562 8.27896C10.8319 9.39319 10.2621 10.9215 10.16 12.56C10.1519 12.7369 10.1519 12.9143 10.16 13.0913C10.16 13.948 10.289 14.7963 10.5398 15.5878C10.7905 16.3793 11.1579 17.0985 11.6212 17.7042C12.5568 18.9277 13.8257 19.615 15.1488 19.615H22.8513C23.196 19.6037 23.539 19.6827 23.86 19.8474C24.181 20.0121 24.4736 20.2592 24.7204 20.5741C24.9673 20.8889 25.1634 21.2653 25.2973 21.6808C25.4312 22.0964 25.5001 22.5428 25.5 22.9938C25.5169 23.2341 25.5169 23.4759 25.5 23.7163C25.371 24.4639 25.0514 25.132 24.5937 25.6109C24.136 26.0897 23.5674 26.3508 22.9813 26.3513H15.3438C14.7576 26.3508 14.189 26.0897 13.7313 25.6109C13.2736 25.132 12.954 24.4639 12.825 23.7163H10.3713C10.5109 25.3129 11.0949 26.7865 12.0119 27.8564C12.9289 28.9262 14.1148 29.5175 15.3438 29.5175H18.0575V34.3413H20.0888V29.5175H22.8513C24.0802 29.5175 25.2661 28.9262 26.1831 27.8564C27.1001 26.7865 27.6841 25.3129 27.8238 23.7163V22.9938C27.8218 22.0393 27.6592 21.0971 27.3475 20.234C27.0357 19.371 26.5825 18.6082 26.02 18Z" fill="white"/>
</svg>
