<svg width="23" height="22" viewBox="0 0 23 22" fill="none" xmlns="http://www.w3.org/2000/svg">
<path fill-rule="evenodd" clip-rule="evenodd" d="M11.2 20.3294C5.75021 20.3294 1.31765 16.0552 1.31765 10.8C1.31765 5.54484 5.75021 1.27059 11.2 1.27059C16.6498 1.27059 21.0824 5.54484 21.0824 10.8C21.0824 16.0552 16.6498 20.3294 11.2 20.3294ZM11.2 0C5.02419 0 0 4.84476 0 10.8C0 16.7552 5.02419 21.6 11.2 21.6C17.3758 21.6 22.4 16.7552 22.4 10.8C22.4 4.84476 17.3758 0 11.2 0ZM11.2007 15.2458L11.8595 15.2471H11.2007L11.2007 15.2458ZM8.7808 4.60856C9.75718 3.88052 11.0168 3.63656 12.2423 3.9415C13.5823 4.27566 14.672 5.32645 15.0185 6.61863C15.2913 7.63638 15.1437 8.68079 14.6048 9.56005C14.0738 10.4266 13.191 11.067 12.183 11.316C12.0222 11.3554 11.8588 11.4824 11.8588 11.6743V12.706H10.5412V11.6743C10.5412 10.931 11.0814 10.2779 11.8562 10.0848C12.5282 9.91962 13.1159 9.49271 13.4703 8.91459C13.83 8.32631 13.9275 7.62366 13.7431 6.93628C13.5138 6.08499 12.7957 5.39252 11.9128 5.17143C11.0854 4.96686 10.2381 5.12696 9.5872 5.61359C8.9376 6.09896 8.56471 6.83209 8.56471 7.62366H7.24705C7.24705 6.43566 7.80575 5.33662 8.7808 4.60856ZM11.2007 13.9765C10.4733 13.9765 9.88302 14.547 9.88302 15.2471C9.88302 15.9472 10.4733 16.5177 11.2007 16.5177C11.9267 16.5177 12.5183 15.9472 12.5183 15.2471C12.5183 14.547 11.9267 13.9765 11.2007 13.9765Z" fill="#FF9800" stroke="#FF9800" stroke-width="0.00064"/>
</svg>
