<svg width="16" height="16" viewBox="0 0 16 16" fill="none" xmlns="http://www.w3.org/2000/svg">
<path d="M5.15699 2.93099L9.76799 7.61599C9.86912 7.71821 9.92584 7.8562 9.92584 7.99999C9.92584 8.14378 9.86912 8.28177 9.76799 8.38399L5.15799 13.069C5.05691 13.1718 5.00028 13.3103 5.00028 13.4545C5.00028 13.5987 5.05691 13.7371 5.15799 13.84C5.20737 13.8906 5.26638 13.9309 5.33156 13.9584C5.39674 13.9859 5.46675 14 5.53749 14C5.60822 14 5.67824 13.9859 5.74342 13.9584C5.8086 13.9309 5.86761 13.8906 5.91699 13.84L10.527 9.15599C10.8299 8.84747 10.9996 8.43237 10.9996 7.99999C10.9996 7.56761 10.8299 7.15251 10.527 6.84399L5.91699 2.15999C5.8676 2.10919 5.80852 2.06881 5.74325 2.04123C5.67798 2.01366 5.60784 1.99945 5.53699 1.99945C5.46613 1.99945 5.396 2.01366 5.33073 2.04123C5.26546 2.06881 5.20638 2.10919 5.15699 2.15999C5.05591 2.26285 4.99928 2.40129 4.99928 2.54549C4.99928 2.6897 5.05591 2.82814 5.15699 2.93099Z" fill="white"/>
</svg>
