<svg width="21" height="20" viewBox="0 0 21 20" fill="none" xmlns="http://www.w3.org/2000/svg">
<g clip-path="url(#clip0_13_284)">
<path d="M9.66863 11.203C9.87047 11.0014 10.2233 11.0014 10.4312 11.203L13.396 14.0767C13.9428 14.6066 14.6642 14.8977 15.4231 14.8977H15.996L12.3666 18.5216C11.2336 19.6225 9.36697 19.6225 8.20075 18.5216L4.4467 14.8865H4.79954C5.55835 14.8865 6.27103 14.5954 6.80179 14.0655L9.66863 11.203ZM10.3898 8.45615C10.1501 8.66142 9.839 8.66515 9.62718 8.45615L6.67394 5.59364C6.12668 5.0301 5.40572 4.77258 4.64691 4.77258H4.29406L7.93459 1.13604C9.07089 0.00350173 10.9376 0.00350173 12.1043 1.13604L15.8468 4.76139H15.2701C14.5113 4.76139 13.7986 5.05249 13.2678 5.58245L10.3898 8.45615ZM4.65958 5.6123C5.18316 5.6123 5.66816 5.8213 6.07585 6.18704L9.02909 9.04955C9.3058 9.28467 9.66498 9.45262 10.0254 9.45262C10.3821 9.45262 10.7362 9.28467 11.0058 9.04955L13.8838 6.17585C14.2502 5.81383 14.7592 5.60484 15.2828 5.60484H16.7132L18.9579 7.78064C20.1246 8.91146 20.1523 10.7477 19.0198 11.8785L16.8407 14.0543H15.4103C14.8867 14.0543 14.3714 13.8453 13.9941 13.4795L11.0293 10.6058C10.4941 10.0871 9.57212 10.0871 9.05263 10.6096L6.18573 13.4683C5.78908 13.8341 5.31039 14.0431 4.78681 14.0431H3.57955L1.34557 11.8785C0.177163 10.7477 0.149452 8.91146 1.28373 7.78064L3.45232 5.6123H4.65958Z" fill="white"/>
</g>
<defs>
<clipPath id="clip0_13_284">
<rect width="20" height="20" fill="white" transform="matrix(1 0 0.0150895 0.999886 0 0)"/>
</clipPath>
</defs>
</svg>
