<svg width="24" height="23" viewBox="0 0 24 23" fill="none" xmlns="http://www.w3.org/2000/svg">
<mask id="path-1-inside-1_20_74" fill="white">
<path d="M15.4194 17.9488V19.098C15.4194 21.002 13.7617 22.5454 11.7167 22.5454C9.67164 22.5454 8.01391 21.002 8.01391 19.098V17.9488M15.4194 17.9488H8.01391H15.4194ZM15.4194 17.9488H19.851C20.3231 17.9488 20.5604 17.9488 20.7515 17.8889C21.1168 17.7742 21.4025 17.5071 21.5257 17.1672C21.5903 16.9885 21.5903 16.7669 21.5903 16.3238C21.5903 16.13 21.5901 16.0331 21.5738 15.9406C21.5431 15.7659 21.4702 15.6003 21.3594 15.4566C21.3008 15.3806 21.2262 15.3113 21.0795 15.1746L20.5987 14.727C20.4436 14.5825 20.3565 14.3866 20.3565 14.1824V9.90477C20.3565 5.46215 16.4883 1.8607 11.7167 1.86071C6.94506 1.86072 3.07689 5.46216 3.07689 9.90477V14.1824C3.07689 14.3867 2.98956 14.5825 2.83445 14.727L2.35369 15.1746C2.20646 15.3116 2.13274 15.3805 2.07406 15.4566C1.96318 15.6004 1.88972 15.7659 1.85893 15.9406C1.84264 16.0331 1.84264 16.13 1.84264 16.3239C1.84264 16.7669 1.84264 16.9884 1.90738 17.1671C2.03055 17.5071 2.31758 17.7742 2.68275 17.8889C2.87393 17.9488 3.11023 17.9488 3.58239 17.9488H8.01391M19.1452 0.727264C21.5903 1.86071 23.0378 0.727264 23.0378 5.32625L19.1452 0.727264ZM4.28889 0.727264C0 1.5 1.24551 3.50603 0.39624 5.32625L4.28889 0.727264Z"/>
</mask>
<path d="M20.7515 17.8889L40.8091 81.8161C40.8142 81.8145 40.8194 81.8129 40.8245 81.8113L20.7515 17.8889ZM21.5257 17.1672L84.5173 39.9938C84.5203 39.9856 84.5232 39.9774 84.5262 39.9692L21.5257 17.1672ZM21.5738 15.9406L-44.4126 27.5507L-44.4107 27.5617L21.5738 15.9406ZM21.3594 15.4566L74.4202 -25.4525C74.413 -25.4619 74.4058 -25.4712 74.3986 -25.4805L21.3594 15.4566ZM21.0795 15.1746L66.7555 -33.8428C66.7487 -33.8492 66.7419 -33.8555 66.7351 -33.8618L21.0795 15.1746ZM20.5987 14.727L66.2544 -34.3094L66.2542 -34.3096L20.5987 14.727ZM11.7167 1.86071L11.7165 -65.1393L11.7167 1.86071ZM2.83445 14.727L48.4893 63.764L48.4957 63.7581L2.83445 14.727ZM2.35369 15.1746L-43.3012 -33.8625L-43.3038 -33.8601L2.35369 15.1746ZM2.07406 15.4566L-50.9784 -25.4633C-50.9835 -25.4567 -50.9886 -25.4501 -50.9937 -25.4435L2.07406 15.4566ZM1.85893 15.9406L-64.1235 4.30783L-64.1255 4.31949L1.85893 15.9406ZM1.90738 17.1671L64.9015 -5.65277L64.901 -5.65414L1.90738 17.1671ZM2.68275 17.8889L-17.3927 81.8105C-17.3867 81.8124 -17.3808 81.8142 -17.3748 81.8161L2.68275 17.8889ZM47.3224 -60.0596C13.7507 -75.6215 -26.0799 -61.0216 -41.6417 -27.4499C-57.2036 6.12172 -42.6037 45.9523 -9.03205 61.5141L47.3224 -60.0596ZM-43.9622 5.32625C-43.9622 42.3293 -13.9653 72.3262 23.0378 72.3262C60.0408 72.3262 90.0378 42.3293 90.0378 5.32625H-43.9622ZM16.1691 66.6656C52.5858 60.1043 76.7885 25.2638 70.2272 -11.1529C63.666 -47.5697 28.8254 -71.7723 -7.5913 -65.211L16.1691 66.6656ZM-60.3202 -23.0024C-75.9657 10.5304 -61.4652 50.3972 -27.9324 66.0427C5.60038 81.6882 45.4672 67.1877 61.1127 33.6549L-60.3202 -23.0024ZM-51.5806 17.9488V19.098H82.4194V17.9488H-51.5806ZM-51.5806 19.098C-51.5806 -20.4287 -18.6528 -44.4546 11.7167 -44.4546V89.5454C46.1763 89.5454 82.4194 62.4327 82.4194 19.098H-51.5806ZM11.7167 -44.4546C42.0862 -44.4546 75.0139 -20.4287 75.0139 19.098H-58.9861C-58.9861 62.4327 -22.7429 89.5454 11.7167 89.5454V-44.4546ZM75.0139 19.098V17.9488H-58.9861V19.098H75.0139ZM15.4194 -49.0512H8.01391V84.9488H15.4194V-49.0512ZM15.4194 84.9488H19.851V-49.0512H15.4194V84.9488ZM19.851 84.9488C19.8701 84.9488 20.3451 84.9496 20.8494 84.9444C21.3561 84.9392 22.5025 84.9239 23.9343 84.8484C26.6555 84.7049 33.0694 84.2445 40.8091 81.8161L0.693989 -46.0384C8.24248 -48.4068 14.4422 -48.8373 16.879 -48.9657C18.9096 -49.0728 20.79 -49.0512 19.851 -49.0512V84.9488ZM40.8245 81.8113C59.867 75.8315 76.841 61.1772 84.5173 39.9938L-41.466 -5.65947C-34.036 -26.163 -17.6335 -40.2832 0.678575 -46.0336L40.8245 81.8113ZM84.5262 39.9692C87.649 31.341 88.2665 24.0766 88.459 20.9064C88.5582 19.2728 88.5781 17.9691 88.5847 17.4059C88.5885 17.0804 88.5896 16.8114 88.59 16.6534C88.5904 16.5017 88.5903 16.3594 88.5903 16.3238H-45.4097C-45.4097 17.3568 -45.4384 15.1514 -45.2945 12.7829C-45.1181 9.87896 -44.533 2.8147 -41.4749 -5.63479L84.5262 39.9692ZM88.5903 16.3238C88.5903 16.3208 88.5906 16.0291 88.5882 15.7025C88.5858 15.3683 88.5787 14.652 88.5473 13.7527C88.4799 11.8278 88.2867 8.4556 87.5583 4.31949L-44.4107 27.5617C-45.1228 23.5181 -45.3078 20.2405 -45.3709 18.4357C-45.4185 17.0733 -45.4097 15.841 -45.4097 16.3238H88.5903ZM87.5602 4.33044C85.6397 -6.58447 81.0993 -16.7895 74.4202 -25.4525L-31.7014 56.3657C-38.1588 47.9901 -42.5536 38.1163 -44.4126 27.5507L87.5602 4.33044ZM74.3986 -25.4805C71.9056 -28.7106 69.6336 -31.0428 68.4143 -32.2511C67.8296 -32.8307 67.3537 -33.2811 67.1417 -33.481C67.0218 -33.5941 66.9229 -33.6866 66.8669 -33.7389C66.8141 -33.7882 66.7627 -33.8361 66.7555 -33.8428L-24.5965 64.1919C-24.2162 64.5464 -25.0498 63.7797 -25.9094 62.9278C-27.04 61.8073 -29.2454 59.5477 -31.6798 56.3936L74.3986 -25.4805ZM66.7351 -33.8618L66.2544 -34.3094L-25.0569 63.7633L-24.5761 64.2109L66.7351 -33.8618ZM66.2542 -34.3096C79.1344 -22.3175 87.3565 -4.98774 87.3565 14.1824H-46.6435C-46.6435 33.7609 -38.2472 51.4825 -25.0567 63.7635L66.2542 -34.3096ZM87.3565 14.1824V9.90477H-46.6435V14.1824H87.3565ZM87.3565 9.90477C87.3565 -35.9685 48.9029 -65.1394 11.7165 -65.1393L11.7168 68.8607C-15.9263 68.8608 -46.6435 46.8928 -46.6435 9.90477H87.3565ZM11.7165 -65.1393C-25.4693 -65.1392 -63.9231 -35.9687 -63.9231 9.90477H70.0769C70.0769 46.893 39.3594 68.8606 11.7168 68.8607L11.7165 -65.1393ZM-63.9231 9.90477V14.1824H70.0769V9.90477H-63.9231ZM-63.9231 14.1824C-63.9231 -5.03453 -55.6658 -22.3476 -42.8268 -34.3041L48.4957 63.7581C61.6449 51.5126 70.0769 33.8079 70.0769 14.1824H-63.9231ZM-42.8204 -34.3101L-43.3012 -33.8625L48.0086 64.2116L48.4893 63.764L-42.8204 -34.3101ZM-43.3038 -33.8601C-43.3044 -33.8595 -43.5045 -33.6736 -43.723 -33.4674C-43.947 -33.2561 -44.4313 -32.7971 -45.0257 -32.2069C-46.2801 -30.9614 -48.5219 -28.6481 -50.9784 -25.4633L55.1265 56.3764C52.7287 59.4852 50.5531 61.726 49.387 62.8838C48.5001 63.7644 47.6612 64.535 48.0112 64.2092L-43.3038 -33.8601ZM-50.9937 -25.4435C-57.5657 -16.9163 -62.1737 -6.75186 -64.1235 4.30783L67.8413 27.5733C65.9531 38.2837 61.4921 48.1172 55.1418 56.3566L-50.9937 -25.4435ZM-64.1255 4.31949C-64.8633 8.50854 -65.0521 11.9165 -65.1168 13.8226C-65.1471 14.7148 -65.1534 15.4246 -65.1556 15.7441C-65.1568 15.9241 -65.1571 16.0716 -65.1573 16.1559C-65.1574 16.2364 -65.1574 16.3111 -65.1574 16.3239H68.8426C68.8426 15.7956 68.8514 17.0312 68.8062 18.3658C68.7456 20.1518 68.5649 23.4651 67.8434 27.5617L-64.1255 4.31949ZM-65.1574 16.3239C-65.1574 16.3595 -65.1574 16.5018 -65.157 16.6536C-65.1566 16.8117 -65.1555 17.081 -65.1517 17.4068C-65.1451 17.9706 -65.1252 19.2758 -65.0257 20.9114C-64.8326 24.0876 -64.2134 31.3563 -61.0862 39.9883L64.901 -5.65414C67.9634 2.79914 68.5502 9.86774 68.7272 12.7779C68.8714 15.1495 68.8426 17.358 68.8426 16.3239H-65.1574ZM-61.0867 39.9869C-53.372 61.2832 -36.318 75.8668 -17.3927 81.8105L22.7582 -46.0328C40.9531 -40.3184 57.4331 -26.269 64.9015 -5.65277L-61.0867 39.9869ZM-17.3748 81.8161C-9.64887 84.2402 -3.24514 84.7035 -0.505973 84.8481C0.928269 84.9239 2.07655 84.9392 2.5835 84.9444C3.08811 84.9496 3.56356 84.9488 3.58239 84.9488V-49.0512C2.64124 -49.0512 4.52592 -49.0729 6.56038 -48.9654C9.01556 -48.8358 15.2056 -48.4025 22.7403 -46.0384L-17.3748 81.8161ZM3.58239 84.9488H8.01391V-49.0512H3.58239V84.9488ZM-9.03205 61.5141C-2.33319 64.6193 3.58 66.0314 3.88663 66.1113C6.95206 66.9103 -3.99062 64.7271 -14.4655 57.9291C-20.8803 53.766 -26.9601 48.2116 -31.9828 41.2127C-36.8219 34.4696 -39.5891 27.9074 -41.1941 22.7558C-44.034 13.6403 -43.9622 6.43131 -43.9622 5.32625H90.0378C90.0378 1.9217 89.9286 -6.87028 86.7409 -17.1021C82.6802 -30.1359 73.9374 -44.4447 58.4823 -54.4748C52.1345 -58.5943 46.4189 -60.8042 43.1145 -61.9333C41.4257 -62.5103 40.0303 -62.9153 39.1993 -63.148C38.4162 -63.3673 37.7306 -63.5444 37.6832 -63.5567C37.0308 -63.7268 41.8461 -62.5981 47.3224 -60.0596L-9.03205 61.5141ZM-7.5913 -65.211C-13.4234 -64.1603 -23.7653 -61.6616 -34.5561 -54.6386C-47.2137 -46.4007 -56.1154 -34.8244 -61.1385 -22.2909C-64.8364 -13.0641 -65.8549 -3.66308 -65.472 -6.16923C-65.4697 -6.18421 -65.1586 -8.34386 -64.5017 -11.0683C-63.7913 -14.0142 -62.5515 -18.2201 -60.3202 -23.0024L61.1127 33.6549C65.7725 23.6675 66.8982 14.6756 66.9913 14.0661C67.5135 10.6477 66.611 19.1576 63.2439 27.5588C58.5517 39.2667 50.1959 50.0828 38.5376 57.6704C28.746 64.043 19.8567 66.0012 16.1691 66.6656L-7.5913 -65.211Z" fill="#FF9800" mask="url(#path-1-inside-1_20_74)"/>
</svg>
